<?xml version="1.0" standalone="no"?><!DOCTYPE svg PUBLIC "-//W3C//DTD SVG 1.1//EN" "http://www.w3.org/Graphics/SVG/1.1/DTD/svg11.dtd"><svg t="1668005184749" class="icon" viewBox="0 0 1024 1024" version="1.1" xmlns="http://www.w3.org/2000/svg" p-id="23632" xmlns:xlink="http://www.w3.org/1999/xlink" width="200" height="200"><path d="M512 512m-512 0a512 512 0 1 0 1024 0 512 512 0 1 0-1024 0Z" fill="#64CCE1" opacity=".15" p-id="23633"></path><path d="M410.181818 779.554909a120.180364 120.180364 0 0 1-72.145454-23.493818 76.334545 76.334545 0 0 1-31.895273-60.765091v-354.513455a76.288 76.288 0 0 1 31.825454-60.776727 120.285091 120.285091 0 0 1 72.192-23.493818 119.435636 119.435636 0 0 1 60.357819 16.093091l217.6 127.569454a156.683636 156.683636 0 0 1 55.645091 53.143273 124.299636 124.299636 0 0 1 18.618181 64.698182 122.181818 122.181818 0 0 1-11.298909 51.025455 141.137455 141.137455 0 0 1-33.559272 45.288727 173.090909 173.090909 0 0 1-29.44 21.527273l-21.306182 12.462545-37.748364 22.109091-37.236364 21.829818-39.691636 23.272727v-252.602181a18.816 18.816 0 0 1 18.757818-18.839273h13.963637a18.804364 18.804364 0 0 1 18.757818 18.839273v126.312727a6.027636 6.027636 0 0 1-1.245091 4.363636 7.424 7.424 0 0 1-4.654546 1.582546h-13.218909c-6.446545 0-13.312-0.209455-20.352-0.628364a69.469091 69.469091 0 0 1 4.363637 8.890182c1.489455 3.409455 2.839273 6.923636 4.026182 10.472727a125.556364 125.556364 0 0 1 5.294545 19.886546h0.314182a262.074182 262.074182 0 0 0 27.333818-1.256728 53.841455 53.841455 0 0 0 20.794182-6.213818 25.506909 25.506909 0 0 0 11.834182-13.835636 69.899636 69.899636 0 0 0 3.083636-22.306909v-164.072728a18.816 18.816 0 0 0-18.757818-18.839272h-89.169455a18.827636 18.827636 0 0 0-18.792727 18.874181v311.540364l-43.927273 25.786182a119.400727 119.400727 0 0 1-60.322909 16.069818z m59.182546-382.568727a17.908364 17.908364 0 0 0-6.981819 1.396363c-1.419636 0.581818-2.874182 1.163636-4.386909 1.745455l-1.000727 0.384-2.397091 0.919273c-6.690909 2.525091-14.045091 5.131636-22.458182 7.947636a569.216 569.216 0 0 1-35.2 10.309818 17.710545 17.710545 0 0 0-13.265454 17.256728v144.512a19.642182 19.642182 0 0 1-5.387637 14.673454 41.413818 41.413818 0 0 1-10.693818 7.784727c1.489455 2.606545 3.013818 5.585455 4.514909 8.832 1.524364 3.421091 2.874182 6.981818 4.189091 10.786909l1.024 3.141819c0.930909 2.944 1.710545 5.352727 2.397091 7.586909 1.024 3.304727 1.768727 6.190545 2.327273 8.285091l0.151273 0.605091a74.752 74.752 0 0 1 9.634909-4.526546 177.838545 177.838545 0 0 1 18.141091-5.632c8.145455-2.152727 19.118545-4.829091 33.419636-8.203636 13.963636-3.339636 32.512-7.645091 55.261091-12.8-0.151273-1.361455-0.290909-2.885818-0.488727-4.573091l-0.174546-1.675637-0.128-1.163636a303.592727 303.592727 0 0 1-0.802909-9.204364 317.614545 317.614545 0 0 1-0.616727-18.257454l-53.806546 10.728727a18.024727 18.024727 0 0 1-3.490909 0.349091 17.640727 17.640727 0 0 1-12.497454-5.178182 17.850182 17.850182 0 0 1-5.317818-12.8v-25.320727a17.931636 17.931636 0 0 1 17.873454-17.943273h40.075636a17.92 17.92 0 0 0 0-35.828363h-40.122181a17.931636 17.931636 0 0 1-17.873455-17.943273v-11.869091a17.838545 17.838545 0 0 1 13.730909-17.361455c8.878545-2.164364 18.269091-4.654545 27.927273-7.365818 4.654545-1.349818 8.506182-2.478545 12.357818-3.735272a18.117818 18.117818 0 0 0 12.136727-12.660364 17.850182 17.850182 0 0 0-4.165818-16.686546l-0.837818-0.837818a17.722182 17.722182 0 0 0-13.067636-5.678545z" fill="#64CCE1" p-id="23634"></path><path d="M307.607273 827.124364a46.242909 46.242909 0 0 1-32.919273-13.637819l-40.005818-39.994181a46.626909 46.626909 0 0 1 0-65.826909l58.589091-58.577455v58.181818c0 36.875636 29.323636 69.201455 72.96 80.453818l-25.762909 25.762909a46.219636 46.219636 0 0 1-32.861091 13.637819z" fill="#64CCE1" opacity=".5" p-id="23635"></path><path d="M736.372364 417.559273a171.054545 171.054545 0 0 0-36.689455-28.450909l-92.381091-54.016 77.079273-77.090909a46.545455 46.545455 0 0 1 65.826909 0l39.947636 39.947636a46.545455 46.545455 0 0 1 0 65.826909l-53.771636 53.783273z" fill="#64CCE1" opacity=".5" p-id="23636"></path></svg>