<?xml version="1.0" standalone="no"?><!DOCTYPE svg PUBLIC "-//W3C//DTD SVG 1.1//EN" "http://www.w3.org/Graphics/SVG/1.1/DTD/svg11.dtd"><svg t="1668345983552" class="icon" viewBox="0 0 1024 1024" version="1.1" xmlns="http://www.w3.org/2000/svg" p-id="8479" xmlns:xlink="http://www.w3.org/1999/xlink" width="200" height="200"><path d="M511.562373 0.871258C229.034962 0.871258 0 229.904222 0 512.435629c0 282.529409 229.034962 511.564371 511.562373 511.564371 282.531407 0 511.566369-229.034962 511.566369-511.564371 0-282.531407-229.034962-511.564371-511.566369-511.564371z m0 992.96243c-265.867597 0-481.396061-215.530462-481.396061-481.398059 0-265.869595 215.528464-481.398059 481.396061-481.398059 265.873592 0 481.400058 215.528464 481.400057 481.398059 0 265.867597-215.526466 481.398059-481.400057 481.398059z" fill="#666666" p-id="8480"></path><path d="M264.722572 407.285171c36.127235-40.103849 65.626115-86.838052 88.494641-140.20061l34.802364 9.445956a1134.693737 1134.693737 0 0 1-20.63243 40.269708h93.716195v30.823751l-36.540883 53.1967h63.388021v299.788711c0 33.143776-16.406029 49.881523-49.220086 50.213241-14.251864 0.331718-29.001304 0-44.24832-0.995153-0.995153-8.286943-2.817601-19.389489-5.469343-33.309635 15.908453 1.656589 30.160317 2.485883 42.755591 2.485883 15.908453 0 23.863679-7.789367 23.863679-23.366102v-81.036992h-44.743898v91.975677h-32.31648v-91.975677h-44.24832c-2.817601 62.476797-16.406029 110.204154-40.767284 143.182072-7.623508-8.616662-16.903606-17.069464-27.840293-25.354409 24.527114-36.127235 36.79067-84.683886 36.790671-145.667955v-169.036055a757.952556 757.952556 0 0 1-13.920146 16.903605c-5.635201-7.62151-13.588429-16.735748-23.863679-27.342716z m50.463028-6.462497h69.35494l36.293094-53.694276h-70.597882c-11.436261 19.389489-23.118313 37.288247-35.050152 53.694276z m19.637277 91.975677h43.750744v-62.642655h-43.750744v62.642655z m0 92.471255h43.750744v-63.140232h-43.750744v63.140232z m120.811122-155.11391H410.890101v62.642655h44.743898v-62.642655z m-44.745896 155.11391h44.743898v-63.140232h-44.743898v63.140232z m97.44502-292.331061H732.056608c-0.995153 32.482339-2.651742 62.974373-4.971766 91.4781-2.320024 40.435567-23.69782 60.654349-64.133387 60.654349-13.920146 0-30.98961-0.497576-51.208392-1.49073-1.988307-13.920146-4.308331-27.178856-6.960074-39.772132 23.863679 2.983459 42.589732 4.47419 56.18016 4.47419 17.898758 0 27.674433-9.611815 29.333021-28.835445 1.656589-14.915299 2.817601-32.482339 3.481035-52.699123h-94.211772c-1.161011 32.977917-7.044002 59.16162-17.648971 78.551109-11.600122 22.538807-33.97307 44.414179-67.116846 65.626115-5.303484-8.286943-13.256711-18.891912-23.863679-31.818904 27.510573-14.915299 46.568344-31.321328 57.173314-49.220086 8.94838-14.417722 14.004075-35.4638 15.163087-63.140232h-54.937217v-33.807211z m-4.971767 326.138272h117.330086v-71.591035h-60.156772c-7.125932 19.057771-14.583581 36.956529-22.372948 53.694276-9.611815-5.635201-20.384641-10.606968-32.316481-14.915299 18.560195-39.772132 33.309635-80.043838 44.24832-120.811122l34.304787 9.445956a1207.911388 1207.911388 0 0 1-12.179628 38.778978h48.472722v-53.694276h36.790671v53.694276h88.992217v33.807211h-88.992217v71.591035h100.924057v33.807211h-100.924057v104.405093H620.691442V652.884028h-117.330086v-33.807211z" fill="#666666" p-id="8481"></path></svg>