<svg t="1678245890902" class="icon" viewBox="0 0 1024 1024" version="1.1" xmlns="http://www.w3.org/2000/svg" p-id="6118" width="200" height="200"><path d="M512 939.52l-371.2-214.016v-427.52l371.2-214.016 371.2 214.016v427.52L512 939.52z" fill="#FFFFFF" p-id="6119"></path><path d="M512 963.072l-391.68-225.792v-451.072l391.68-225.792 391.68 225.792v451.072L512 963.072z m-350.72-249.344l350.72 201.728 350.72-201.728v-403.968L512 108.032l-350.72 201.728v403.968z" fill="#80878B" p-id="6120"></path><path d="M750.08 519.68v-163.84l-97.28 56.32v163.84l97.28-56.32z" fill="#FAB90A" p-id="6121"></path><path d="M873.21088 281.51808l20.27008 35.59424-368.8448 210.06336-20.2752-35.59424z" fill="#80878B" p-id="6122"></path><path d="M156.16512 281.82528l368.8448 210.01728-20.26496 35.59424-368.8448-210.01728z" fill="#80878B" p-id="6123"></path><path d="M494.08 509.44h40.96v414.72h-40.96z" fill="#80878B" p-id="6124"></path><path d="M415.744 163.328l328.192 192-97.792 55.808-325.12-193.024 94.72-54.784z" fill="#FAB90A" p-id="6125"></path></svg>
