<svg t="1781182886938" class="icon" viewBox="0 0 1024 1024" version="1.1" xmlns="http://www.w3.org/2000/svg" p-id="11364" width="200" height="200"><path d="M921.68192 603.79136H982.14912V226.304h-79.54432v377.48736h19.07712zM773.21216 671.0272h-23.04c-61.36832 77.88544-147.92704 121.79456-256.98304 130.29376-86.56896 6.8608-159.98976-11.38688-181.0432-18.97472l-14.9504-5.4272-11.50976 11.02848c-38.33856 36.67968-87.10144 58.7264-140.73856 63.78496-3.05152 0.3584-5.75488 0.3584-7.91552 0.54272 10.61888-12.10368 28.2624-40.12032 32.04096-45.89568 16.54784-25.84576 33.46432-94.33088-19.61984-142.9504C94.19776 613.57056 76.3904 489.0624 91.8528 432.50688l0.18432-1.08544c53.08416-232.38656 268.86144-261.4784 359.56736-263.29088 44.26752 0.7168 83.49696 6.68672 118.23104 16.62976l8.81664-25.48736H648.13056c-52.72576-25.2928-117.32992-41.92256-196.15744-43.008h-0.7168c-47.1552 0.91136-139.12064 9.216-225.13664 55.48032-96.4608 51.8656-158.37184 135.168-184.28928 247.57248-19.2512 71.3728-0.3584 216.65792 73.07264 282.624 34.19136 31.4368 10.97728 75.88864 10.79296 76.25728l-0.18432 0.17408c-9.71776 15.36-23.21408 35.24608-27.89376 40.12032-13.312 14.45888-25.1904 38.85056-14.57152 60.53888 8.0896 16.61952 25.73312 25.11872 52.55168 25.11872 4.49536 0 9.17504-0.18432 14.0288-0.7168 60.1088-5.61152 115.17952-28.91776 160.17408-67.584 37.0688 10.47552 107.9808 23.30624 187.52512 16.97792 122.91072-9.5744 224.59392-61.7984 294.42048-150.8864l0.7168-0.91136a450.48832 450.48832 0 0 0 19.80416-30.35136h-39.05536v0.3584z" fill="#343434" p-id="11365"></path><path d="M728.76032 226.304h-102.4L496.60928 603.79136h85.11488l27.89376-86.016h135.70048l27.89376 86.016H858.33728L728.76032 226.304z m-98.97984 229.13024l46.25408-142.75584h2.8672l46.25408 142.75584h-95.37536z" fill="#343434" p-id="11366"></path></svg>