<?xml version="1.0" standalone="no"?><!DOCTYPE svg PUBLIC "-//W3C//DTD SVG 1.1//EN" "http://www.w3.org/Graphics/SVG/1.1/DTD/svg11.dtd"><svg t="1668007934098" class="icon" viewBox="0 0 1024 1024" version="1.1" xmlns="http://www.w3.org/2000/svg" p-id="81950" xmlns:xlink="http://www.w3.org/1999/xlink" width="200" height="200"><path d="M779.130435 211.478261H244.869565A33.391304 33.391304 0 0 0 211.478261 244.869565v64.845913a33.391304 33.391304 0 1 0 66.782609 0V278.26087h200.058434v467.47826h-37.487304a33.391304 33.391304 0 1 0 0 66.782609h141.801739a33.391304 33.391304 0 0 0 0-66.782609h-37.531826v-467.47826H745.73913v31.454608a33.391304 33.391304 0 1 0 66.782609 0V244.869565A33.391304 33.391304 0 0 0 779.130435 211.478261" fill="#FA4E4E" p-id="81951"></path><path d="M957.217391 923.826087c0 18.409739-14.981565 33.391304-33.391304 33.391304h-823.652174c-18.409739 0-33.391304-14.981565-33.391304-33.391304v-823.652174C66.782609 81.764174 81.764174 66.782609 100.173913 66.782609h823.652174c18.409739 0 33.391304 14.981565 33.391304 33.391304v823.652174zM923.826087 0h-823.652174A100.285217 100.285217 0 0 0 0 100.173913v823.652174C0 979.055304 44.966957 1024 100.173913 1024h823.652174c55.229217 0 100.173913-44.944696 100.173913-100.173913v-823.652174C1024 44.944696 979.055304 0 923.826087 0z" fill="#4A4A4A" p-id="81952"></path></svg>