<?xml version="1.0" standalone="no"?><!DOCTYPE svg PUBLIC "-//W3C//DTD SVG 1.1//EN" "http://www.w3.org/Graphics/SVG/1.1/DTD/svg11.dtd"><svg t="1668008175600" class="icon" viewBox="0 0 1024 1024" version="1.1" xmlns="http://www.w3.org/2000/svg" p-id="86088" xmlns:xlink="http://www.w3.org/1999/xlink" width="200" height="200"><path d="M402.60608 153.088h500.736c39.424 0 71.68 32.256 71.68 71.68s-32.256 71.68-71.68 71.68h-500.736c-39.424 0-71.68-32.256-71.68-71.68 0.512-39.424 32.256-71.68 71.68-71.68zM402.60608 475.136h500.736c39.424 0 71.68 32.256 71.68 71.68s-32.256 71.68-71.68 71.68h-500.736c-39.424 0-71.68-32.256-71.68-71.68 0.512-39.424 32.256-71.68 71.68-71.68zM384.68608 833.024h536.576c29.696 0 53.76 24.064 53.76 53.76s-24.064 53.76-53.76 53.76h-536.576c-29.696 0-53.76-24.064-53.76-53.76 0.512-29.696 24.576-53.76 53.76-53.76z" fill="#CAE4FF" p-id="86089"></path><path d="M396.8 320h515.584c51.712 0 93.696-41.984 93.696-93.696 0-51.712-41.984-93.696-93.696-93.696H396.8c-51.712 0-93.696 41.984-93.696 93.696 0 51.712 41.984 93.696 93.696 93.696z m0-140.8h515.584c26.112 0 47.104 20.992 47.104 46.592 0 26.112-20.992 47.104-46.592 47.104H396.8c-26.112 0-47.104-20.992-47.104-46.592 0.512-26.112 21.504-47.104 47.104-47.104zM162.816 132.608c-51.712 0-93.696 41.984-93.696 93.696 0 51.712 41.984 93.696 93.696 93.696s93.696-41.984 93.696-93.696c0-51.712-41.984-93.696-93.696-93.696z m0 140.288c-26.112 0-47.104-20.992-47.104-47.104s20.992-47.104 47.104-47.104S209.92 199.68 209.92 225.792c-0.512 26.112-21.504 47.104-47.104 47.104zM912.384 460.8H396.8c-51.712 0-93.696 41.984-93.696 93.696 0 51.712 41.984 93.696 93.696 93.696h515.584c51.712 0 93.696-41.984 93.696-93.696 0.512-51.712-41.472-93.696-93.696-93.696z m0 140.288H396.8c-26.112 0-47.104-20.992-47.104-46.592 0-26.112 20.992-47.104 46.592-47.104h515.584c26.112 0 47.104 20.992 47.104 46.592 0.512 26.112-20.48 47.104-46.592 47.104 0.512 0 0.512 0 0 0zM162.816 460.8c-51.712 0-93.696 41.984-93.696 93.696s41.984 93.696 93.696 93.696 93.696-41.984 93.696-93.696c0-52.224-41.984-93.696-93.696-93.696z m0 140.288c-26.112 0-47.104-20.992-47.104-47.104s20.992-47.104 47.104-47.104 47.104 20.992 47.104 47.104c-0.512 26.112-21.504 47.104-47.104 47.104zM912.384 788.48H396.8c-51.712 0-93.696 41.984-93.696 93.696 0 51.712 41.984 93.696 93.696 93.696h515.584c51.712 0 93.696-41.984 93.696-93.696 0.512-51.712-41.472-93.696-93.696-93.696z m0 140.8H396.8c-26.112 0-47.104-20.992-47.104-46.592 0-26.112 20.992-47.104 46.592-47.104h515.584c26.112 0 47.104 20.992 47.104 46.592 0.512 26.112-20.48 47.104-46.592 47.104 0.512 0 0.512 0 0 0zM162.816 788.48c-51.712 0-93.696 41.984-93.696 93.696 0 51.712 41.984 93.696 93.696 93.696s93.696-41.984 93.696-93.696c0-51.712-41.984-93.696-93.696-93.696z m0 140.8c-26.112 0-47.104-20.992-47.104-47.104s20.992-47.104 47.104-47.104 47.104 20.992 47.104 47.104c-0.512 26.112-21.504 47.104-47.104 47.104z" fill="#0972E7" p-id="86090"></path></svg>