<?xml version="1.0" standalone="no"?><!DOCTYPE svg PUBLIC "-//W3C//DTD SVG 1.1//EN" "http://www.w3.org/Graphics/SVG/1.1/DTD/svg11.dtd"><svg t="1723464838347" class="icon" viewBox="0 0 1024 1024" version="1.1" xmlns="http://www.w3.org/2000/svg" p-id="4090" xmlns:xlink="http://www.w3.org/1999/xlink" width="200" height="200"><path d="M512 512m-492.307692 0a492.307692 492.307692 0 1 0 984.615384 0 492.307692 492.307692 0 1 0-984.615384 0Z" fill="#FFFFFF" p-id="4091"></path><path d="M443.628308 634.683077H359.227077l34.737231-197.828923h84.361846z" fill="#0050FF" fill-opacity=".6" p-id="4092"></path><path d="M597.307077 634.683077h-84.401231l48.64-276.795077H645.907692z" fill="#0050FF" fill-opacity=".8" p-id="4093"></path><path d="M736.728615 236.307692l-7.955692 43.52-23.394461 133.356308-1.457231 8.270769-1.969231 11.185231-38.124308 217.403077c-6.183385 35.091692-39.936 63.803077-75.067077 63.803077H339.968c-35.091692 0-58.801231-28.711385-52.617846-63.803077l40.093538-228.548923c6.144-35.091692 39.936-63.803077 75.027693-63.803077h89.403077l14.848-84.834462H394.24c-68.804923 0-134.971077 56.32-147.062154 125.085539L198.892308 673.555692c-12.091077 68.804923 34.304 125.085538 103.108923 125.085539h295.069538c68.804923 0 134.971077-56.280615 147.022769-125.085539l45.686154-260.371692 2.678154-15.241846L821.090462 236.307692h-84.361847z" fill="#0051FF" p-id="4094"></path></svg>